<svg width="418" height="90" viewBox="0 0 418 90" fill="none" xmlns="http://www.w3.org/2000/svg">
<path d="M321 66.162H330C335.662 47.0053 331 20.1794 331 0.162003C328.181 0.162309 323.023 -0.753246 321.028 1.7654C318.338 5.16192 320 14.0368 320 18.162C320 32.9192 316.819 52.0156 321 66.162ZM0 49.162L33 50.162L28 65.162H40C40.9327 61.226 42.1679 55.4801 45.4182 52.7654C49.6358 49.2428 65.7266 49.675 68.9144 54.3102C73.8591 61.5 81.0535 105.32 89.6921 81.162L92.3078 74.162C93.6082 70.521 94.9827 66.8889 96 63.162C104.911 69.1172 111.602 66.3166 120 61.162V65.162H130V23.162H119C119 29.9106 122.02 60.393 108.043 56.044C98.1 52.95 102 31.0704 102 23.162H91L91.7755 59.162L88 72.162C78.9212 55.111 74.197 34.3765 67.6921 16.162C65.3109 9.49432 60.9145 -1.76678 51.6489 5.17514C41.0527 13.114 45.4337 37.1219 33.7755 44.1342C25.6801 49.0034 4.08099 39.0099 0 49.162ZM223 4.16201L222.91 66.162L225 89.162H227C232.542 74.2969 234 60.8744 234 45.162C242.03 45.162 249.951 45.8434 256.985 41.1929C267.548 34.2098 269.448 16.8814 258.906 8.81095C249.325 1.47663 234.277 4.16201 223 4.16201ZM234 35.162V14.162C238.649 14.162 244.661 13.2163 248.906 15.4799C255.888 19.2032 255.28 29.2337 248.981 33.1528C244.576 35.893 238.956 35.162 234 35.162ZM57.9999 18.162L64.9999 42.162H47.9999L55.9999 18.162H57.9999ZM150 29.162V23.162H139V65.162H150C150 56.8395 147.703 44.1602 153.43 37.2708C156.675 33.3665 163.858 34.5303 165.655 30.0138C170.924 16.769 154.129 25.1324 150 29.162ZM201 60.162V65.162H211L212 23.162H201V28.162C198.26 25.7196 195.655 23.5808 192 22.6952C160.262 15.0057 161.329 74.9384 192 66.0494C195.638 64.9949 198.26 62.6531 201 60.162ZM363 35.162C376.158 25.5832 357.96 20.1554 349 22.966C346.81 23.653 344.798 24.7977 343.133 26.3866C334.636 34.5002 341.221 44.0015 350 47.7122C352.674 48.8424 358.793 50.3749 358.793 54.1474C358.793 62.8115 342.327 49.816 339.176 58.1697C337.392 62.8983 344.685 65.3366 348 66.2345C355.87 68.3661 366.699 66.566 370.142 58.1582C373.394 50.2178 367.998 43.8368 361 40.922C358.359 39.8219 350.936 38.4082 351.631 34.2662C352.647 28.2203 360.828 33.4286 363 35.162ZM387 48.162H418C417.928 39.4848 415.778 29.9584 407.996 24.8897C395.837 16.9698 379.025 25.6339 376.468 39.162C373.728 53.6526 382.565 67.0824 398 67.0833C402.084 67.0836 416.504 64.7105 414.654 58.1667C412.53 50.653 404.271 57.0619 400 57.5895C393.669 58.3715 388.891 53.71 387 48.162ZM272 23.162C272 36.2374 266.646 73.7435 291 66.1651C294.297 65.1392 297.092 62.9472 300 61.162V66.162L308.972 64.5231L310 53.162V23.162H299C299 31.1569 301.104 42.6844 297.991 50.1466C296.45 53.8402 292.275 57.6585 288.019 55.8781C279.182 52.1806 283 30.9621 283 23.162H272ZM407 40.162H387C389.908 28.0419 402.956 29.8851 407 40.162ZM188.001 32.6103C202.337 29.0509 205.317 52.7986 191.999 56.3179C178.323 59.932 175.362 35.7484 188.001 32.6103Z" fill="#0C4870"/>
</svg>
